<svg width="21" height="21" viewBox="0 0 21 21" fill="none" xmlns="http://www.w3.org/2000/svg">
<path fill-rule="evenodd" clip-rule="evenodd" d="M9.16623 0.88058C9.93884 0.236747 11.0611 0.236747 11.8337 0.88058L20.1671 7.82502C20.6421 8.22084 20.9167 8.80717 20.9167 9.42551V18.8334C20.9167 19.9841 19.9839 20.9168 18.8333 20.9168H2.16665C1.01605 20.9168 0.083313 19.9841 0.083313 18.8334V9.42551C0.083313 8.80717 0.357948 8.22084 0.832928 7.82502L9.16623 0.88058ZM10.5 2.48104L2.16665 9.42551V18.8334H6.33331V15.1876C6.33331 14.037 7.26605 13.1043 8.41665 13.1043H12.5833C13.7339 13.1043 14.6667 14.037 14.6667 15.1876V18.8334H18.8333V9.42551L10.5 2.48104ZM12.5833 18.8334V15.1876H8.41665V18.8334H12.5833Z" fill="#8B97AE"/>
</svg>
